<?xml version="1.0" standalone="no"?>
<!DOCTYPE svg PUBLIC "-//W3C//DTD SVG 1.1//EN" "http://www.w3.org/Graphics/SVG/1.1/DTD/svg11.dtd" >
<svg xmlns="http://www.w3.org/2000/svg">
<metadata></metadata>
<defs>
<font id="COM4tSansMediumRegular" horiz-adv-x="1237" >
<font-face units-per-em="2048" ascent="1638" descent="-410" />
<missing-glyph horiz-adv-x="630" />
<glyph horiz-adv-x="0" />
<glyph horiz-adv-x="2048" />
<glyph unicode="&#xd;" horiz-adv-x="630" />
<glyph unicode=" "  horiz-adv-x="630" />
<glyph unicode="&#x09;" horiz-adv-x="630" />
<glyph unicode="&#xa0;" horiz-adv-x="630" />
<glyph unicode="!" horiz-adv-x="570" d="M0 103q0 54 38.5 92.5t92.5 38.5t92.5 -38.5t38.5 -92.5t-38.5 -92.5t-92.5 -38.5t-92.5 38.5t-38.5 92.5zM0 1611h262l-56 -1177h-149z" />
<glyph unicode="&#x22;" horiz-adv-x="788" d="M0 1088v550h201l-116 -550h-85zM327 1088v550h201l-117 -550h-84z" />
<glyph unicode="#" horiz-adv-x="1302" d="M0 532v127h221l40 306h-237v128h254l61 464h177l-61 -464h269l61 464h177l-61 -464h200v-128h-217l-40 -306h232v-127h-249l-70 -532h-177l70 532h-269l-69 -532h-177l69 532h-204zM398 659h269l40 306h-269z" />
<glyph unicode="$" horiz-adv-x="1078" d="M-29 196l66 206q133 -105 338 -109v471q-177 97 -256 171q-131 121 -131 267q0 28 4 60q14 118 123 194t260 90v92h120v-91q251 -38 322 -78l-46 -200q-95 83 -276 100v-428q213 -123 289.5 -224.5t76.5 -219.5q1 -15 0 -31q-8 -139 -107 -233.5t-259 -120.5v-112h-120 v104q-246 3 -404 92zM227 1202q0 -103 148 -194v358q-148 -27 -148 -164zM495 309q132 49 132 168t-132 214v-382z" />
<glyph unicode="%" horiz-adv-x="1853" d="M-32 1225q0 171 111.5 284.5t275.5 112.5q164 0 276 -113t112 -284t-111.5 -284.5t-276.5 -113.5q-164 0 -275.5 113.5t-111.5 284.5zM168 1226.5q0 -105.5 50 -170.5t137.5 -65t137.5 65t50 170.5t-49.5 169.5t-138.5 64q-88 0 -137.5 -64t-49.5 -169.5zM250 0l937 1611 h186l-939 -1611h-184zM887 386.5q0 171.5 111.5 285t276.5 112.5q164 0 275.5 -113t111.5 -284t-111.5 -284.5t-275.5 -113.5t-276 113t-112 284.5zM1087.5 388.5q0.5 -105.5 49.5 -170.5t137.5 -65t137.5 65t49 170.5t-49 169.5t-137 64t-138 -64t-49.5 -169.5z" />
<glyph unicode="&#x26;" horiz-adv-x="1523" d="M0 409q0 161 70 273.5t250 232.5q-140 204 -140 360.5t105 258t277 101.5t267.5 -95t95.5 -243q0 -217 -331 -424q26 -30 123 -144t232 -268q119 187 132 424l201 -74q-33 -268 -202 -499q96 -108 284 -312h-275l-141 164q-207 -189 -439 -189t-370.5 136.5t-138.5 297.5 zM237 442.5q0 -111.5 79 -188.5t185 -76q171 0 321 133l-359 420q-14 17 -34 41q-102 -71 -147 -144.5t-45 -185zM388 1275q0 -115 98 -260q230 140 230 265q0 73 -38 128.5t-123.5 55.5t-126 -59.5t-40.5 -129.5z" />
<glyph unicode="'" horiz-adv-x="392" d="M0 1088v550h201l-116 -550h-85z" />
<glyph unicode="(" horiz-adv-x="892" d="M57 614q0 657 487 1023l89 -119q-135 -106 -241 -355.5t-107 -548.5q0 -299 106.5 -548.5t241.5 -355.5l-89 -120q-486 366 -487 1024z" />
<glyph unicode=")" horiz-adv-x="907" d="M-14 -290q135 106 241 355t106 549q0 299 -106 548.5t-241 355.5l89 119q486 -366 486 -1023t-486 -1024z" />
<glyph unicode="*" horiz-adv-x="1028" d="M0 1355l89 154l269 -212l-49 341h178l-49 -339l271 214l89 -155l-319 -127l321 -128l-89 -155l-269 213l49 -341h-178l49 339l-271 -214l-89 155l319 127z" />
<glyph unicode="+" horiz-adv-x="1265" d="M-15 475v144h468v475h157v-475h468v-144h-468v-474h-157v474h-468z" />
<glyph unicode="," horiz-adv-x="470" d="M0 131q0 54 38.5 92.5t93 38t101.5 -47.5t47 -149.5t-62.5 -212.5t-152.5 -156l-47 82q148 92 155 229q-21 -7 -43 -7q-54 0 -92 38.5t-38 92.5z" />
<glyph unicode="-" d="M0 475v144h1036v-144h-1036z" />
<glyph unicode="." horiz-adv-x="453" d="M0 131q0 54 38.5 92.5t92.5 38.5t92.5 -38.5t38.5 -92.5t-38.5 -92.5t-92.5 -38.5t-92.5 38.5t-38.5 92.5z" />
<glyph unicode="/" horiz-adv-x="841" d="M-78 0l603 1611h173l-603 -1611h-173z" />
<glyph unicode="0" horiz-adv-x="1313" d="M-32 806q0 371 153.5 597.5t423.5 226.5t423.5 -226.5t153.5 -597.5t-153.5 -597t-423.5 -226t-423.5 226.5t-153.5 596.5zM209 806.5q0 -298.5 90 -463t246.5 -164.5t245.5 164.5t89 462.5t-89 463.5t-245.5 165.5t-246.5 -165t-90 -463.5z" />
<glyph unicode="1" horiz-adv-x="659" d="M-32 1255v212l314 145h117v-1612h-222v1346z" />
<glyph unicode="2" horiz-adv-x="1181" d="M0 1508q77 61 187 95t199 35q236 0 373.5 -103t137.5 -292.5t-122 -398.5q-77 -132 -453 -650h599v-194l-919 -1v103q409 548 525.5 748t116.5 367q0 105 -70.5 163t-179.5 58q-174 0 -320 -144z" />
<glyph unicode="3" horiz-adv-x="1161" d="M-80 145l73 238q155 -204 355 -204q156 0 235.5 83t79.5 220.5t-88.5 211.5t-229.5 73q-41 0 -85 -6l-2 195q166 18 253 94t87 194q0 83 -67.5 139.5t-196.5 56.5q-160 0 -316 -153l-65 211q153 139 385 139.5t367.5 -106t135.5 -271.5q0 -121 -69 -223t-181 -151 q143 -37 226.5 -148t83.5 -276q0 -217 -149 -352t-380 -135q-120 0 -247.5 48t-204.5 122z" />
<glyph unicode="4" horiz-adv-x="1142" d="M-64 351v142l677 1119h178v-1067h209v-194h-209v-351h-214v351h-641zM160 545h417v715z" />
<glyph unicode="5" horiz-adv-x="1097" d="M-43 153l87 212q124 -198 321 -198q154 0 237 93t82.5 255t-88.5 242t-225.5 80.5t-240.5 -117.5l-133 47l84 844v1h722v-194h-541l-46 -426q98 37 189 37q237 0 370.5 -139.5t133.5 -376.5t-149 -388t-384 -150q-112 0 -232 49t-187 129z" />
<glyph unicode="6" horiz-adv-x="1193" d="M-32 798q0 383 143 607.5t410 224.5q225 0 389 -116l-111 -201q-78 69 -134 95t-137 26q-144 0 -231.5 -141t-100.5 -399q123 195 353 195q187 0 319.5 -142.5t132.5 -366.5q0 -283 -141.5 -440t-362.5 -157q-267 0 -398 216t-131 599zM213 537.5q0 -152.5 78.5 -255.5 t204 -103.5t204 103t78.5 256t-78.5 255.5t-204.5 103.5t-204 -103t-78 -256z" />
<glyph unicode="7" horiz-adv-x="964" d="M-64 1418v194h917v-164q-211 -305 -334.5 -691t-127.5 -756h-258q29 358 149.5 733t315.5 684h-662z" />
<glyph unicode="8" horiz-adv-x="1240" d="M-32 477q0 285 272 410q-203 112 -202 323q0 186 136 303t334 117q199 0 335 -117t136 -314t-204 -312q274 -124 274 -410q0 -222 -161.5 -358.5t-379.5 -136t-378.5 136.5t-161.5 358zM218 484.5q0 -152.5 85.5 -231.5t205 -79.5t205.5 79t86 232t-85.5 231.5t-206 79 t-205.5 -79t-85 -231.5zM269 1207q0 -111 69 -177.5t170.5 -66.5t170.5 66.5t69 177.5t-68.5 177.5t-170.5 66.5t-170.5 -66.5t-69.5 -177.5z" />
<glyph unicode="9" horiz-adv-x="1200" d="M-32 1092q0 235 153.5 386.5t359.5 151.5q529 0 529 -824q0 -389 -145 -606t-416 -217q-230 0 -400 140l103 200q111 -144 289 -144q145 0 232.5 142t100.5 403q-106 -167 -319 -167t-350 150t-137 385zM208.5 1093.5q0.5 -149.5 74.5 -246t200 -96.5t200.5 96.5 t74.5 246t-74.5 246.5t-200.5 97t-200.5 -97t-74 -246.5z" />
<glyph unicode=":" horiz-adv-x="453" d="M0 131q0 54 38.5 92.5t92.5 38.5t92.5 -38.5t38.5 -92.5t-38.5 -92.5t-92.5 -38.5t-92.5 38.5t-38.5 92.5zM0 970q0 54 38.5 92.5t92.5 38.5t92.5 -38.5t38.5 -92.5t-38.5 -92.5t-92.5 -38.5t-92.5 38.5t-38.5 92.5z" />
<glyph unicode=";" horiz-adv-x="470" d="M0 131q0 54 38.5 92.5t93 38t101.5 -47.5t47 -149.5t-62.5 -212.5t-152.5 -156l-47 82q148 92 155 229q-21 -7 -43 -7q-54 0 -92 38.5t-38 92.5zM0 970q0 54 38.5 92.5t92.5 38.5t92.5 -38.5t38.5 -92.5t-38.5 -92.5t-92.5 -38.5t-92.5 38.5t-38.5 92.5z" />
<glyph unicode="&#x3c;" horiz-adv-x="1243" d="M0 548l983 571v-173l-688 -398l688 -399v-173z" />
<glyph unicode="=" horiz-adv-x="1300" d="M-14 198v144h1084v-144h-1084zM-14 747v144h1084v-144h-1084z" />
<glyph unicode="&#x3e;" horiz-adv-x="1127" d="M0 -24v173l688 399l-688 398v173l983 -571z" />
<glyph unicode="?" horiz-adv-x="1114" d="M0 1493q158 136 389 136t356 -93t125 -255t-106 -289q-100 -109 -200 -217q-107 -144 -106 -341h-192q0 230 94 381q11 19 172 203q93 107 93 217.5t-66 156t-162 45.5q-175 0 -330 -163zM238 103q0 54 38.5 92.5t92.5 38.5t92 -38.5t38 -92.5t-38 -92.5t-92 -38.5 t-92.5 38.5t-38.5 92.5z" />
<glyph unicode="@" horiz-adv-x="1733" d="M0 786.5q0 340.5 229 577.5t558 237t536.5 -190.5t207.5 -480.5q0 -236 -143 -383t-379 -147q-29 0 -59 2l-63 97v1q-99 -111 -256 -111q-118 0 -191 80.5t-73 215.5q0 55 13 117q40 179 156.5 288.5t273 109.5t210.5 -105l104 96h110l-156 -632q123 -5 210.5 105.5 t87.5 251.5q0 248 -162 395.5t-426.5 147.5t-446.5 -212t-182.5 -462t164.5 -443q184 -216 482.5 -216.5t516.5 202.5l97 -115q-251 -238 -609 -238t-584 235.5t-226 576zM574 710q0 -151 123 -151q192 0 245 238q12 52 12 93q0 144 -141 144q-83 0 -147 -70 q-92 -103 -92 -254z" />
<glyph unicode="A" horiz-adv-x="1406" d="M-95 0l609 1611h141l609 -1611h-233l-177 497h-539l-177 -497h-233zM381 683h407l-203 570z" />
<glyph unicode="B" horiz-adv-x="1184" d="M0 0v1610h378q209 0 347 -89q162 -105 163 -305q0 -268 -215 -356q310 -77 310 -399q0 -461 -595 -461h-388zM220 186h112q239 0 335 68.5t96 235.5q0 268 -338 268h-3h-202v-572zM220 936h183q256 0 256 246q0 235 -334 235h-105v-481z" />
<glyph unicode="C" horiz-adv-x="1423" d="M-35 806.5q0 363.5 223 593.5t515.5 230t524.5 -176l-113 -203q-166 174 -395 174l-2 -1q-230 0 -368.5 -163.5t-138.5 -454t149 -458.5t380 -168q115 0 220 60t164 145l134 -164q-83 -109 -230.5 -174t-302.5 -65q-307 0 -533.5 230.5t-226.5 594z" />
<glyph unicode="D" horiz-adv-x="1495" d="M0 0v1609h472q322 0 531 -142q292 -199 292 -649.5t-286 -662.5q-212 -157 -530 -157zM220 194h201q645 0 645 619v6q-2 366 -241 507q-154 91 -438 91h-6h-161v-1223z" />
<glyph unicode="E" horiz-adv-x="1016" d="M0 0v1612h797v-194h-575v-458h518v-194h-518v-572h593v-194h-815z" />
<glyph unicode="F" horiz-adv-x="986" d="M0 0v1612h797v-194h-575v-458h518v-194h-518v-766h-222z" />
<glyph unicode="G" horiz-adv-x="1466" d="M-35 805.5q0 365.5 219 595t525 229.5q267 0 487 -176l-113 -203q-162 182 -380 182q-1 0 -1 -1q-220 0 -355.5 -166t-135.5 -459.5t138 -460t366 -166.5q176 0 302 98v509h217v-595q-82 -98 -229.5 -154t-303.5 -56q-304 0 -520 229t-216 594.5z" />
<glyph unicode="H" horiz-adv-x="1441" d="M0 0v1610h222v-650h737v651h222v-1609h-222v764h-737v-766h-222z" />
<glyph unicode="I" horiz-adv-x="482" d="M0 2v1609h222v-1609h-222z" />
<glyph unicode="J" horiz-adv-x="505" d="M-203 -218q226 29 227 242v1587h221v-1611q0 -184 -108 -290t-297 -117z" />
<glyph unicode="K" horiz-adv-x="1325" d="M0 2v1609h222v-651h186l508 651h250l-585 -752l597 -859h-267l-518 766h-171v-764h-222z" />
<glyph unicode="L" horiz-adv-x="972" d="M0 0v1612h222v-1418h577v-194h-799z" />
<glyph unicode="M" horiz-adv-x="1833" d="M-12 0l69 1604h176l549 -1155l548 1155h176l70 -1604h-222l-40 1131l-508 -1075h-48l-509 1075l-39 -1131h-222z" />
<glyph unicode="N" horiz-adv-x="1517" d="M0 0v1607h124l911 -1117v1121h222v-1611h-101l-934 1163v-1163h-222z" />
<glyph unicode="O" horiz-adv-x="1783" d="M-35 806q0 362 228 593t576 231t576 -231t228 -593t-228 -592.5t-576.5 -230.5t-576 231t-227.5 592zM206 806q0 -292 159 -459.5t405 -167.5q245 0 403 167t158 460t-158 461t-403 168t-404.5 -168t-159.5 -461z" />
<glyph unicode="P" horiz-adv-x="1155" d="M0 0v1611h465q240 0 368 -132t128 -329.5t-128.5 -331.5t-367.5 -134h-245v-684h-220zM220 879h182q323 0 323 268.5t-323 268.5h-182v-537z" />
<glyph unicode="Q" horiz-adv-x="1798" d="M-35 806.5q0 361.5 228 592.5t576.5 231t576.5 -231q227 -230 227 -590q0 -250 -111.5 -441.5t-303.5 -292.5q228 -64 430 -258l-182 -171q-158 174 -306 255.5t-330 81.5q-349 0 -577 231t-228 592.5zM207 806.5q0 -292.5 159 -460t404 -167.5t403 167t158 460 t-157.5 461t-403.5 168q-245 0 -404 -168t-159 -460.5z" />
<glyph unicode="R" horiz-adv-x="1216" d="M0 0v1611h441q241 0 368.5 -125t126.5 -320q0 -307 -278 -401l420 -765h-246l-390 732h-222v-732h-220zM220 927h158q175 0 248.5 55.5t73.5 183t-75 189t-247 61.5h-158v-489z" />
<glyph unicode="S" horiz-adv-x="1064" d="M-29 126l86 218q154 -165 336 -165q88 0 150.5 59.5t72.5 146.5q2 15 1 29q0 174 -263 349q-202 135 -274 237q-71 100 -70 213q0 37 5 87q16 149 133 237.5t283 88.5q253 -10 381 -158l-87 -205q-116 171 -292 171t-196 -152q-2 -11 -1 -22q0 -129 192 -265 q248 -175 336 -299.5t88 -264.5q0 -212 -132.5 -330t-349 -118t-399.5 143z" />
<glyph unicode="T" horiz-adv-x="1146" d="M-43 1418v194h1006v-194h-390v-1418h-222v1418h-394z" />
<glyph unicode="U" horiz-adv-x="1437" d="M0 519v1092h222v-984q0 -224 67 -322q83 -122 299 -122q217 0 300 122q67 98 67 322v984h222v-1092q0 -276 -174 -418q-154 -126 -415 -126t-414 126q-174 142 -174 418z" />
<glyph unicode="V" horiz-adv-x="1389" d="M-95 1613h239l432 -1249l433 1249h238l-600 -1613h-142z" />
<glyph unicode="W" horiz-adv-x="1989" d="M-95 1611h240l287 -1187l324 1187h206l325 -1187l286 1187h240l-417 -1612h-184l-353 1243l-353 -1243h-184z" />
<glyph unicode="X" horiz-adv-x="1240" d="M-173 1l510 849l-463 762h254l355 -583l356 583h253l-462 -762l509 -849h-254l-402 671l-401 -671h-255z" />
<glyph unicode="Y" horiz-adv-x="1280" d="M-115 1611h247l393 -687l393 687h247l-530 -915v-696h-221v696z" />
<glyph unicode="Z" horiz-adv-x="1135" d="M-66 1v105l702 1311h-631v194h933v-81l-716 -1336h725v-194z" />
<glyph unicode="[" horiz-adv-x="769" d="M0 -410v2048h538v-143h-325v-1761h325v-144h-538z" />
<glyph unicode="\" horiz-adv-x="833" d="M-87 1611h173l604 -1611h-174z" />
<glyph unicode="]" horiz-adv-x="884" d="M0 -266h325v1761h-325v143h538v-2048h-538v144z" />
<glyph unicode="^" horiz-adv-x="1099" d="M0 939l333 672h275l333 -672h-166l-305 543l-304 -543h-166z" />
<glyph unicode="_" horiz-adv-x="1311" d="M0 -167h1094v-144h-1094v144z" />
<glyph unicode="`" horiz-adv-x="631" d="M0 1611h266l163 -244h-117z" />
<glyph unicode="a" horiz-adv-x="981" d="M-72 350q0 162 106.5 259.5t288.5 97.5h228q-3 119 -66 173q-62 54 -149 53h-3q-144 0 -254 -91l-66 192q49 29 153 51t167 22q184 0 307.5 -94.5t123.5 -280.5v-732h-88l-104 120q-107 -134 -270 -134t-268.5 101t-105.5 263zM142 357q0 -83 54 -136q53 -53 141 -53h2 q89 0 150.5 56.5t61.5 171.5v142h-191q-102 0 -160 -49t-58 -132z" />
<glyph unicode="b" horiz-adv-x="1099" d="M0 0v1638h213v-680q102 146 300.5 146t312 -149t113.5 -403t-125 -410q-126 -158 -313 -158h-1q-186 0 -293 132l-100 -116h-107zM214 546q0 -379 249 -379t249 379t-249 379t-249 -379z" />
<glyph unicode="c" horiz-adv-x="994" d="M-57 544q0 253 155 406.5t365 153.5t367 -91l-64 -213q-99 129 -283 129q-132 0 -223 -109.5t-91 -283t91 -272.5t231 -99q171 0 280 148l79 -188q-149 -139 -374.5 -139t-379 152.5t-153.5 405.5z" />
<glyph unicode="d" horiz-adv-x="1144" d="M-26 551.5q0 253.5 117.5 403t310.5 149.5t298 -136v670h213v-1638h-107l-104 120q-103 -136 -290 -136t-312.5 157t-125.5 410.5zM201 546q0 -379 249 -379t249 379t-249 379t-249 -379z" />
<glyph unicode="e" horiz-adv-x="1124" d="M-26 547.5q0 268.5 148 412.5q147 144 372 144h3q183 0 325.5 -128t142.5 -348q0 -49 -8 -100h-756q5 -178 91 -266.5t222 -88.5q181 0 281 128l111 -173q-69 -64 -175 -103t-209 -39q-229 0 -388.5 146.5t-159.5 415zM216 696h512q-1 110 -74.5 169.5t-170.5 59.5 q-216 0 -267 -229z" />
<glyph unicode="f" horiz-adv-x="650" d="M0 0v1309q0 329 411 329q27 0 56 -1l24 -180q-52 7 -92 7h-10q-92 0 -133.5 -38.5t-42.5 -132.5v-201h264v-178h-264v-914h-213z" />
<glyph unicode="g" horiz-adv-x="1144" d="M-26 551.5q0 253.5 117.5 403t310.5 149.5t298 -136l106 122h107v-995q0 -226 -135 -364.5t-347 -138.5q-58 0 -152 19t-137 41l47 206q107 -78 282 -79q219 0 228 337q-104 -132 -289 -132t-310.5 157t-125.5 410.5zM201 546q0 -379 249 -379t249 379t-249 379 t-249 -379z" />
<glyph unicode="h" horiz-adv-x="1129" d="M0 0v1638h213v-657q122 137 304.5 137t281.5 -98t100 -282v-738h-214v738q0 104 -57 155t-153.5 51t-179 -69.5t-82.5 -218.5v-656h-213z" />
<glyph unicode="i" horiz-adv-x="493" d="M0 1507.5q0 54.5 38.5 92.5t92.5 38t92.5 -38t38.5 -92t-38.5 -93t-92.5 -39t-92.5 38.5t-38.5 93zM24 0v1093h213v-1093h-213z" />
<glyph unicode="j" horiz-adv-x="471" d="M-175 -218q108 2 143 52.5t35 170.5v1090h213v-1090q0 -190 -71 -289q-88 -121 -297 -126zM-21 1508q0 54 38.5 92t92.5 38t92 -38t38 -92t-38 -92.5t-92 -38.5t-92.5 38.5t-38.5 92.5z" />
<glyph unicode="k" horiz-adv-x="1058" d="M0 0v1638h213v-966h104l350 421h242l-424 -502l430 -590h-252l-347 492h-103v-493h-213z" />
<glyph unicode="l" horiz-adv-x="444" d="M0 0v1638h213v-1638h-213z" />
<glyph unicode="m" horiz-adv-x="1636" d="M0 0v1093h117l73 -123q81 148 275 148q236 0 313 -196l-3 25q56 159 286 171q162 0 253 -97.5t91 -282.5v-738h-213v738q0 206 -174 206q-93 0 -150.5 -65t-58.5 -192v-687h-213v738q0 206 -174 206q-94 0 -151 -65t-58 -192v-687h-213z" />
<glyph unicode="n" horiz-adv-x="1129" d="M0 0v1093h117l79 -133q119 158 335 158q169 0 268 -98t99 -282v-738h-213v738q0 104 -57 155t-153.5 51t-179 -69.5t-82.5 -218.5v-656h-213z" />
<glyph unicode="o" horiz-adv-x="1166" d="M-26 548q0 257 146 408t370.5 151t370 -151t145.5 -408t-145 -408t-370.5 -151t-370.5 151t-146 408zM201 548q0 -184 81.5 -282.5t207.5 -98.5q127 0 208 98.5t81 282.5t-81 282t-208 99q-127 0 -207.5 -98.5t-81.5 -282.5z" />
<glyph unicode="p" horiz-adv-x="1099" d="M0 -408v1501h107l100 -116q107 132 294 132t312.5 -156.5t125.5 -411t-113.5 -403.5t-311.5 -149t-301 146v-543h-213zM214 547q0 -379 249 -379t249 379t-249 379t-249 -379z" />
<glyph unicode="q" horiz-adv-x="1144" d="M-26 544q0 253 126 408q126 157 312.5 157t289.5 -136l104 120h107v-1501h-213v532q-104 -136 -297 -136h-1q-194 1 -310 150q-118 151 -118 406zM201 547q0 -379 249 -379t249 379t-249 379t-249 -379z" />
<glyph unicode="r" horiz-adv-x="710" d="M0 0v1093h117l68 -114q78 139 237 139q110 0 161 -46l-34 -208q-49 72 -160 72q-176 0 -176 -289v-647h-213z" />
<glyph unicode="s" horiz-adv-x="800" d="M-64 102l103 179q95 -122 234 -122t158 85q5 20 4 36q0 57 -70 109q-86 58 -244.5 169.5t-158.5 262.5q0 34 8 70q49 216 344 216q84 0 180.5 -36t135.5 -83l-98 -173q-80 118 -224 118h-2q-103 0 -120 -69q-3 -12 -3 -25q0 -69 81.5 -124.5t216.5 -143.5 q171 -115 171 -272t-124 -243q-101 -70 -246 -70q-209 0 -346 116z" />
<glyph unicode="t" horiz-adv-x="620" d="M0 312v987h213v-206h241v-178h-241v-540q0 -216 144 -216q35 0 86 11l20 -186q-72 -11 -132 -11q-331 0 -331 339z" />
<glyph unicode="u" horiz-adv-x="1115" d="M-14 355v738h213v-738q0 -104 60.5 -155t159 -51t165.5 54q87 70 87 217v673h213v-1093h-117l-69 116q-129 -142 -313 -142h-1q-185 0 -291.5 99.5t-106.5 281.5z" />
<glyph unicode="v" horiz-adv-x="1083" d="M-64 1093h216l278 -905l278 905h216l-355 -1093h-278z" />
<glyph unicode="w" horiz-adv-x="1665" d="M-48 1093h216l196 -893l219 893h275l219 -893l197 893h215l-273 -1093h-277l-218 921l-219 -921h-277z" />
<glyph unicode="x" horiz-adv-x="1051" d="M-64 0l351 561l-334 532h232l229 -393l229 393h233l-335 -532l351 -561h-233l-245 421l-246 -421h-232z" />
<glyph unicode="y" horiz-adv-x="1087" d="M-64 1092h225l267 -764l278 765h206l-546 -1501h-206l162 444z" />
<glyph unicode="z" horiz-adv-x="945" d="M-32 1v105l483 793h-442v194h720v-81l-485 -818h494v-194z" />
<glyph unicode="{" horiz-adv-x="890" d="M0 541v145q218 51 218 243q0 25 -7.5 81t-7.5 130q0 265 149 386q110 90 325 111l26 -140q-159 -37 -224.5 -97.5t-65.5 -215.5q0 -75 11.5 -153.5t11.5 -123.5q0 -215 -212 -293q212 -78 212 -294q0 -44 -11.5 -123t-11.5 -154q0 -154 65.5 -214.5t224.5 -98.5l-26 -140 q-215 21 -325 111q-149 121 -149 387q0 74 7.5 130t7.5 80q0 192 -218 243z" />
<glyph unicode="|" horiz-adv-x="417" d="M0 -410v2048h157v-2048h-157z" />
<glyph unicode="}" horiz-adv-x="962" d="M0 -270q159 38 224 98.5t66 214.5q0 75 -12 154t-12 124q0 215 212 293q-212 78 -212 293q0 44 11.5 123.5t12.5 153.5q0 154 -74 223q-57 53 -216 90l26 140q215 -21 325 -111q149 -121 149 -386q0 -74 -7.5 -130t-7.5 -81q0 -192 218 -243v-145q-218 -51 -218 -243 q0 -24 7.5 -80t7.5 -130q0 -265 -149 -387q-110 -89 -325 -111z" />
<glyph unicode="~" horiz-adv-x="1036" d="M0 809q89 149 220 153q105 3 222 -68.5t197.5 -68.5t152.5 96l71 -123q-89 -149 -210 -152.5t-231 67.5t-194.5 68.5t-156.5 -95.5z" />
<glyph unicode="&#xa5;" horiz-adv-x="1266" d="M-115 1598h247l393 -686l393 686h247l-356 -616h259v-128h-333l-99 -171v-81h432v-127h-432v-475h-222v475h-432v127h432v81l-99 171h-333v128h259z" />
<glyph unicode="&#xad;" d="M0 475v144h1036v-144h-1036z" />
<glyph unicode="&#x2000;" horiz-adv-x="819" />
<glyph unicode="&#x2001;" horiz-adv-x="1638" />
<glyph unicode="&#x2002;" horiz-adv-x="819" />
<glyph unicode="&#x2003;" horiz-adv-x="1638" />
<glyph unicode="&#x2004;" horiz-adv-x="546" />
<glyph unicode="&#x2005;" horiz-adv-x="409" />
<glyph unicode="&#x2006;" horiz-adv-x="273" />
<glyph unicode="&#x2007;" horiz-adv-x="273" />
<glyph unicode="&#x2008;" horiz-adv-x="204" />
<glyph unicode="&#x2009;" horiz-adv-x="327" />
<glyph unicode="&#x200a;" horiz-adv-x="91" />
<glyph unicode="&#x2010;" d="M0 475v144h1036v-144h-1036z" />
<glyph unicode="&#x2011;" d="M0 475v144h1036v-144h-1036z" />
<glyph unicode="&#x2012;" d="M0 475v144h1036v-144h-1036z" />
<glyph unicode="&#x2013;" horiz-adv-x="1225" d="M0 475v144h1024v-144h-1024z" />
<glyph unicode="&#x2014;" horiz-adv-x="2249" d="M0 475v144h2048v-144h-2048z" />
<glyph unicode="&#x202f;" horiz-adv-x="327" />
<glyph unicode="&#x205f;" horiz-adv-x="409" />
<glyph unicode="&#xe000;" horiz-adv-x="1093" d="M0 0v1094h1094v-1094h-1094z" />
</font>
</defs>
</svg>
